{"title":"Captain Phillips (2013) DVDRip XviD-MAX","uid":9446119,"size":1461204511,"categoryP":"video","categoryS":"movies","magnet":"?xt=urn:btih:4a68200cc82d8d5e9aba9882e2f0a436f8722ded&amp;dn=Captain+Phillips+%282013%29+DVDRip+XviD-MAX&amp;tr=udp%3A%2F%2Ftracker.openbittorrent.com%3A80&amp;tr=udp%3A%2F%2Fopen.demonii.com%3A1337&amp;tr=udp%3A%2F%2Ftracker.coppersurfer.tk%3A6969&amp;tr=udp%3A%2F%2Fexodus.desync.com%3A6969","seeders":171,"leechers":14,"uploader":"extremezone","files":-1,"time":1389053381,"description":" &lt;a href=&quot;http://img62.imageshack.us/img62/6171/fguw.jpg&quot; rel=&quot;nofollow&quot; target=&quot;_NEW&quot;&gt;http://img62.imageshack.us/img62/6171/fguw.jpg&lt;/a&gt;\n\nScreens:\n &lt;a href=&quot;\nhttp://img812.imageshack.us/img812/7431/qhij.jpg&quot; rel=&quot;nofollow&quot; target=&quot;_NEW&quot;&gt;\nhttp://img812.imageshack.us/img812/7431/qhij.jpg&lt;/a&gt; &lt;a href=&quot;\nhttp://img844.imageshack.us/img844/7201/3cfv.jpg&quot; rel=&quot;nofollow&quot; target=&quot;_NEW&quot;&gt;\nhttp://img844.imageshack.us/img844/7201/3cfv.jpg&lt;/a&gt; &lt;a href=&quot;\nhttp://img24.imageshack.us/img24/1626/1ai3.jpg&quot; rel=&quot;nofollow&quot; target=&quot;_NEW&quot;&gt;\nhttp://img24.imageshack.us/img24/1626/1ai3.jpg&lt;/a&gt; &lt;a href=&quot;\nhttp://img843.imageshack.us/img843/3672/8crz.jpg&quot; rel=&quot;nofollow&quot; target=&quot;_NEW&quot;&gt;\nhttp://img843.imageshack.us/img843/3672/8crz.jpg&lt;/a&gt;\n\nScreenCaps:\n &lt;a href=&quot;\nhttp://img809.imageshack.us/img809/7263/p4x7.jpg&quot; rel=&quot;nofollow&quot; target=&quot;_NEW&quot;&gt;\nhttp://img809.imageshack.us/img809/7263/p4x7.jpg&lt;/a&gt;\n\nCaptain Phillips (2013) DVDRip XviD-MAX\nFormat                                   : AVI\nFormat/Info                              : Audio Video Interleave\nFormat profile                           : OpenDML\nFormat settings                          : rec\nFile size                                : 1.36 GiB\nDuration                                 : 2h 14mn\nOverall bit rate                         : 1 448 Kbps\nWriting application                      : VirtualDubMod 1.5.10.2 (build 2542/release)\nWriting library                          : VirtualDubMod build 2542/release\nOriginal source form                     : MAX TORRENTZ\nCopyright                                : SIGISMUNT\n\nVideo\nID                                       : 0\nFormat                                   : MPEG-4 Visual\nFormat profile                           : Advanced Simple@L5\nFormat settings, BVOP                    : 2\nFormat settings, QPel                    : No\nFormat settings, GMC                     : No warppoints\nFormat settings, Matrix                  : Custom\nCodec ID                                 : XVID\nCodec ID/Hint                            : XviD\nDuration                                 : 2h 14mn\nBit rate                                 : 1 187 Kbps\nWidth                                    : 720 pixels\nHeight                                   : 304 pixels\nDisplay aspect ratio                     : 2.35:1\nFrame rate                               : 23.976 fps\nColor space                              : YUV\nChroma subsampling                       : 4:2:0\nBit depth                                : 8 bits\nScan type                                : Progressive\nCompression mode                         : Lossy\nBits/(Pixel*Frame)                       : 0.226\nStream size                              : 1.11 GiB (82%)\nWriting library                          : XviD 1.2.1 (UTC 2008-12-04)\n\nAudio\nID                                       : 1\nFormat                                   : AC-3\nFormat/Info                              : Audio Coding 3\nMode extension                           : CM (complete main)\nFormat settings, Endianness              : Big\nCodec ID                                 : 2000\nDuration                                 : 2h 14mn\nBit rate mode                            : Constant\nBit rate                                 : 256 Kbps\nChannel(s)                               : 6 channels\nChannel positions                        : Front: L C R, Side: L R, LFE\nSampling rate                            : 48.0 KHz\nBit depth                                : 16 bits\nCompression mode                         : Lossy\nStream size                              : 245 MiB (18%)\nAlignment                                : Aligned on interleaves\nInterleave, duration                     : 64 ms (1.53 video frames)\nInterleave, preload duration             : 192 ms\n\nSource: DVD-full and foreign parts only english subfiles included\n(perfect a/v/sync quality,sample included)\nThis torrent is not seedbox supported,please seed it to the MAX\n\nNote: If you have something to offer as early releases,seedboxes,\ncontact us on &lt;a href=&quot; http://torentz.3xforum.ro&quot; rel=&quot;nofollow&quot; target=&quot;_NEW&quot;&gt; http://torentz.3xforum.ro&lt;/a&gt; or &lt;a href=&quot; http://torentz.tk&quot; rel=&quot;nofollow&quot; target=&quot;_NEW&quot;&gt; http://torentz.tk&lt;/a&gt;\n\nCaptain Phillips (2013) DVDRip XviD-MAX Torrent Free Download\n\nHow To Get Your MAXSPEED (uTorrent)\n\nTorrent Client - Preferences - Bandwidth - Number of connections - Set aprox. 500 for each\nTorrent Client - Preferences - BiTorrent - Protocol Encryption - Forced\nBandwidth Allocation - High (Set download/upload limit - Unlimited)\nStop Other Active Torrents - Start downloading and wait for connections.\nEnjoy and Seed for at least 1:1 ratio. Don't forget to say thanks/leave reviews.\nIf screens/Caps image host is dead google search &quot;release name&quot;&quot;screens&quot; or &quot;sample&quot;.\nGreets to all actual/future p2p/scene QUALITY groups and affiliate websites.\nDon't trust IMDb robot or bad ratings,always watch some trailers first.\nIgnore stupid comments/fake/mislabeled/no-DVDrips/CAM/TS/RAR uploads.\nPlease spread this release/torrent to your friends/forums/etc.\nIf you need translation subs visit some subtitles sites.\nReport if you see online streaming or other spam links.\nRecommended movie player VLC PLAYER.","torrent":{"xt":"urn:btih:4a68200cc82d8d5e9aba9882e2f0a436f8722ded","amp;dn":"Captain+Phillips+%282013%29+DVDRip+XviD-MAX","amp;tr":["udp%3A%2F%2Ftracker.openbittorrent.com%3A80","udp%3A%2F%2Fopen.demonii.com%3A1337","udp%3A%2F%2Ftracker.coppersurfer.tk%3A6969","udp%3A%2F%2Fexodus.desync.com%3A6969"],"infoHash":"4a68200cc82d8d5e9aba9882e2f0a436f8722ded","infoHashBuffer":{"type":"Buffer","data":[74,104,32,12,200,45,141,94,154,186,152,130,226,240,164,54,248,114,45,237]},"announce":[],"urlList":[]}}